<svg width="58" height="48" viewBox="0 0 58 48" fill="none" xmlns="http://www.w3.org/2000/svg">
    <g filter="url(#filter0_d_1_5)">
        <path
            d="M8 3.5H50C51.933 3.5 53.5 5.067 53.5 7V39C53.5 40.933 51.933 42.5 50 42.5H8C6.067 42.5 4.5 40.933 4.5 39V7C4.5 5.067 6.067 3.5 8 3.5Z"
            stroke="currentColor" shape-rendering="crispEdges" />
    </g>
    <path d="M8 3.5H50C51.933 3.5 53.5 5.067 53.5 7V11.5H4.5V7C4.5 5.067 6.067 3.5 8 3.5Z" stroke="currentColor" />
    <circle cx="49.5" cy="7.5" r="2.5" fill="currentColor" />
    <circle cx="42.5" cy="7.5" r="2.5" fill="currentColor" />
    <circle cx="35.5" cy="7.5" r="2.5" fill="currentColor" />
    <g filter="url(#filter1_d_1_5)">
        <path
            d="M46.1154 24.9155C45.721 24.5271 45.0879 24.5333 44.7012 24.9294L36.5757 33.2535C36.1891 33.6496 36.1953 34.2855 36.5896 34.6739L38.2527 36.3119C38.647 36.7003 39.2802 36.6941 39.6668 36.298L47.7923 27.974C48.179 27.5778 48.1728 26.9419 47.7784 26.5535L46.1154 24.9155Z"
            fill="currentColor" />
        <path
            d="M47.7868 27.9906C48.1765 27.5975 48.1753 26.9615 47.784 26.57L39.561 18.3431C39.1697 17.9517 38.5365 17.9529 38.1468 18.346L36.5031 20.0036C36.1134 20.3967 36.1147 21.0327 36.506 21.4242L44.729 29.651C45.1203 30.0425 45.7534 30.0413 46.1432 29.6482L47.7868 27.9906Z"
            fill="currentColor" />
    </g>
    <g filter="url(#filter2_d_1_5)">
        <path
            d="M24.3678 35.8561C23.8491 35.6664 23.5811 35.0918 23.7692 34.5725L29.4335 18.9402C29.6217 18.4209 30.1947 18.1537 30.7134 18.3434L32.9031 19.1439C33.4218 19.3335 33.6897 19.9082 33.5016 20.4275L27.8373 36.0598C27.6491 36.579 27.0761 36.8463 26.5574 36.6566L24.3678 35.8561Z"
            fill="currentColor" />
    </g>
    <g filter="url(#filter3_d_1_5)">
        <path
            d="M10.9629 24.9155C11.3573 24.5271 11.9904 24.5333 12.3771 24.9294L20.5026 33.2535C20.8892 33.6496 20.883 34.2855 20.4887 34.6739L18.8256 36.3119C18.4313 36.7003 17.7981 36.6941 17.4115 36.298L9.28598 27.974C8.89931 27.5778 8.90553 26.9419 9.29988 26.5535L10.9629 24.9155Z"
            fill="currentColor" />
        <path
            d="M9.29151 27.9906C8.90177 27.5975 8.90303 26.9615 9.29434 26.57L17.5173 18.3431C17.9086 17.9517 18.5418 17.9529 18.9315 18.346L20.5752 20.0036C20.9649 20.3967 20.9636 21.0327 20.5723 21.4242L12.3494 29.651C11.9581 30.0425 11.3249 30.0413 10.9352 29.6482L9.29151 27.9906Z"
            fill="currentColor" />
    </g>
    <defs>
        <filter id="filter0_d_1_5" x="0" y="0" width="58" height="48" filterUnits="userSpaceOnUse"
            color-interpolation-filters="sRGB">
            <feFlood flood-opacity="0" result="BackgroundImageFix" />
            <feColorMatrix in="SourceAlpha" type="matrix" values="0 0 0 0 0 0 0 0 0 0 0 0 0 0 0 0 0 0 127 0"
                result="hardAlpha" />
            <feOffset dy="1" />
            <feGaussianBlur stdDeviation="2" />
            <feComposite in2="hardAlpha" operator="out" />
            <feColorMatrix type="matrix" values="0 0 0 0 0 0 0 0 0 0 0 0 0 0 0 0 0 0 0.33 0" />
            <feBlend mode="normal" in2="BackgroundImageFix" result="effect1_dropShadow_1_5" />
            <feBlend mode="normal" in="SourceGraphic" in2="effect1_dropShadow_1_5" result="shape" />
        </filter>
        <filter id="filter1_d_1_5" x="32.2117" y="15.0504" width="19.8666" height="26.5488" filterUnits="userSpaceOnUse"
            color-interpolation-filters="sRGB">
            <feFlood flood-opacity="0" result="BackgroundImageFix" />
            <feColorMatrix in="SourceAlpha" type="matrix" values="0 0 0 0 0 0 0 0 0 0 0 0 0 0 0 0 0 0 127 0"
                result="hardAlpha" />
            <feOffset dy="1" />
            <feGaussianBlur stdDeviation="2" />
            <feComposite in2="hardAlpha" operator="out" />
            <feColorMatrix type="matrix" values="0 0 0 0 0 0 0 0 0 0 0 0 0 0 0 0 0 0 0.33 0" />
            <feBlend mode="normal" in2="BackgroundImageFix" result="effect1_dropShadow_1_5" />
            <feBlend mode="normal" in="SourceGraphic" in2="effect1_dropShadow_1_5" result="shape" />
        </filter>
        <filter id="filter2_d_1_5" x="19.7091" y="15.2823" width="17.8526" height="26.4353" filterUnits="userSpaceOnUse"
            color-interpolation-filters="sRGB">
            <feFlood flood-opacity="0" result="BackgroundImageFix" />
            <feColorMatrix in="SourceAlpha" type="matrix" values="0 0 0 0 0 0 0 0 0 0 0 0 0 0 0 0 0 0 127 0"
                result="hardAlpha" />
            <feOffset dy="1" />
            <feGaussianBlur stdDeviation="2" />
            <feComposite in2="hardAlpha" operator="out" />
            <feColorMatrix type="matrix" values="0 0 0 0 0 0 0 0 0 0 0 0 0 0 0 0 0 0 0.33 0" />
            <feBlend mode="normal" in2="BackgroundImageFix" result="effect1_dropShadow_1_5" />
            <feBlend mode="normal" in="SourceGraphic" in2="effect1_dropShadow_1_5" result="shape" />
        </filter>
        <filter id="filter3_d_1_5" x="5" y="15.0504" width="19.8666" height="26.5488" filterUnits="userSpaceOnUse"
            color-interpolation-filters="sRGB">
            <feFlood flood-opacity="0" result="BackgroundImageFix" />
            <feColorMatrix in="SourceAlpha" type="matrix" values="0 0 0 0 0 0 0 0 0 0 0 0 0 0 0 0 0 0 127 0"
                result="hardAlpha" />
            <feOffset dy="1" />
            <feGaussianBlur stdDeviation="2" />
            <feComposite in2="hardAlpha" operator="out" />
            <feColorMatrix type="matrix" values="0 0 0 0 0 0 0 0 0 0 0 0 0 0 0 0 0 0 0.33 0" />
            <feBlend mode="normal" in2="BackgroundImageFix" result="effect1_dropShadow_1_5" />
            <feBlend mode="normal" in="SourceGraphic" in2="effect1_dropShadow_1_5" result="shape" />
        </filter>
    </defs>
</svg>
